# xmcd CD database file
#
# Track frame offsets:
#	150
#	1011
#	17174
#	31366
#	51461
#	70304
#	90697
#	108917
#	125086
#	142977
#	161618
#	181053
#	206042
#	226155
#	247800
#	283937
#
# Disc length: 3804 seconds
#
# Revision: 0
# Processed by: cddbd v1.4b41PL1 Copyright (c) Steve Scherf et al.
# Submitted via: Feurio! 1.60.3ß - http://www.feurio.com
#
DISCID=d70eda10
DTITLE=Various Artist - KARAOKE - Millenium Love Songs Vol.8
DYEAR=1900
DGENRE=
TTITLE0=??? - Datentrack
TTITLE1=Dan Hill - Sometimes When We Touch
TTITLE2=Johnny Logan - Hold Me Now
TTITLE3=Janet Jackson - Every Time
TTITLE4=Journey - When You Love A Woman
TTITLE5=The Chi-Lites - Have You Seen Her
TTITLE6=Charlene - I`ve Never Been To Me
TTITLE7=Kansas - Dust In The Wind
TTITLE8=Kele La Roc - My Love
TTITLE9=Lionel Richie - Hello
TTITLE10=Peabo Bryson and Regina Bell - A Whole New World
TTITLE11=George Michael - One More Try
TTITLE12=Shawn Colvin - Sunny Came Home
TTITLE13=Marc Anthony and Tina Arena - I Want To Spend My Lifetime Loving You
TTITLE14=Meat Loaf - I´d Do Anything For Love (But I Won`t Do That)
TTITLE15=??? - Datentrack
EXTD=
EXTT0=
EXTT1=
EXTT2=
EXTT3=
EXTT4=
EXTT5=
EXTT6=
EXTT7=
EXTT8=
EXTT9=
EXTT10=
EXTT11=
EXTT12=
EXTT13=
EXTT14=
EXTT15=
PLAYORDER=
